<?xml version="1.0" encoding="UTF-8" standalone="no"?>
<!-- Created with Inkscape (http://www.inkscape.org/) -->

<svg
   xmlns:dc="http://purl.org/dc/elements/1.1/"
   xmlns:cc="http://creativecommons.org/ns#"
   xmlns:rdf="http://www.w3.org/1999/02/22-rdf-syntax-ns#"
   xmlns:svg="http://www.w3.org/2000/svg"
   xmlns="http://www.w3.org/2000/svg"
   xmlns:sodipodi="http://sodipodi.sourceforge.net/DTD/sodipodi-0.dtd"
   xmlns:inkscape="http://www.inkscape.org/namespaces/inkscape"
   id="svg4214"
   version="1.1"
   inkscape:version="0.91 r13725"
   xml:space="preserve"
   width="100"
   height="100"
   viewBox="0 0 100 100"
   sodipodi:docname="graph_offre_de_travail.svg"><metadata
     id="metadata4220"><rdf:RDF><cc:Work
         rdf:about=""><dc:format>image/svg+xml</dc:format><dc:type
           rdf:resource="http://purl.org/dc/dcmitype/StillImage" /><dc:title></dc:title></cc:Work></rdf:RDF></metadata><defs
     id="defs4218" /><sodipodi:namedview
     pagecolor="#ffffff"
     bordercolor="#666666"
     borderopacity="1"
     objecttolerance="10"
     gridtolerance="10"
     guidetolerance="10"
     inkscape:pageopacity="0"
     inkscape:pageshadow="2"
     inkscape:window-width="1846"
     inkscape:window-height="1058"
     id="namedview4216"
     showgrid="false"
     inkscape:zoom="4.72"
     inkscape:cx="33.864171"
     inkscape:cy="62.669667"
     inkscape:window-x="1912"
     inkscape:window-y="-8"
     inkscape:window-maximized="1"
     inkscape:current-layer="g4224" /><g
     id="g4222"
     inkscape:groupmode="layer"
     inkscape:label="graph_offre_de_capital"
     transform="matrix(1.25,0,0,-1.25,0,100)"><g
       id="g4224"><g
         id="g4226"
         transform="matrix(1,0,0,-1,0,80)"><path
           d="m 12,4 0,64 64,0"
           style="fill:none;stroke:#000000;stroke-width:0.594266;stroke-linecap:butt;stroke-linejoin:miter;stroke-miterlimit:4;stroke-dasharray:none;stroke-opacity:1"
           id="path4228"
           inkscape:connector-curvature="0" /></g><path
         d="m 10.563,72.891 1.433,3.894 1.43,-3.894 c -0.844,0.625 -2,0.621 -2.863,0 z"
         style="fill:#000000;fill-opacity:1;fill-rule:evenodd;stroke:none"
         id="path4230"
         inkscape:connector-curvature="0" /><path
         d="m 72.891,13.438 3.894,-1.434 -3.894,-1.43 c 0.625,0.844 0.621,2 0,2.864 z"
         style="fill:#000000;fill-opacity:1;fill-rule:evenodd;stroke:none"
         id="path4232"
         inkscape:connector-curvature="0" /><text
         transform="scale(1,-1)"
         style="font-variant:normal;font-weight:normal;font-size:4.94895983px;font-family:'Times New Roman';-inkscape-font-specification:TimesNewRomanPSMT;writing-mode:lr-tb;fill:#000000;fill-opacity:1;fill-rule:nonzero;stroke:none"
         id="text4234"
         x="5.4865284"
         y="-72.902252"><tspan
           x="5.4865284"
           y="-72.902252"
           id="tspan4236">Y</tspan></text>
<g
         id="g4242"
         transform="matrix(1,0,0,-1,0,80)"><path
           d="M 12,16 64,68"
           style="fill:none;stroke:#000000;stroke-width:0.40000001;stroke-linecap:butt;stroke-linejoin:miter;stroke-miterlimit:4;stroke-dasharray:none;stroke-opacity:1"
           id="path4244"
           inkscape:connector-curvature="0" /></g><text
         transform="scale(1,-1)"
         style="font-variant:normal;font-weight:normal;font-size:4.94895983px;font-family:'Times New Roman';-inkscape-font-specification:TimesNewRomanPSMT;writing-mode:lr-tb;fill:#000000;fill-opacity:1;fill-rule:nonzero;stroke:none"
         id="text4246"
         x="67.63501"
         y="-7.0490561"><tspan
           x="67.63501"
           y="-7.0490561"
           id="tspan4248">Loisir</tspan></text>
<text
         transform="matrix(1,0,0,-1,72.635674,5.720281)"
         style="font-variant:normal;font-weight:normal;font-size:3.21682405px;font-family:'Times New Roman';-inkscape-font-specification:TimesNewRomanPSMT;writing-mode:lr-tb;fill:#000000;fill-opacity:1;fill-rule:nonzero;stroke:none"
         id="text4250"><tspan
           x="0"
           y="0"
           id="tspan4252" /></text>
<g
         id="g4254"
         transform="matrix(1,0,0,-1,0,80)"><path
           d="M 28,4 C 28,16 29.961,32.879 38.398,41.602 47.008,50.492 60,52 76,52"
           style="fill:none;stroke:#000000;stroke-width:0.40000001;stroke-linecap:butt;stroke-linejoin:miter;stroke-miterlimit:4;stroke-dasharray:none;stroke-opacity:1"
           id="path4256"
           inkscape:connector-curvature="0" /></g><g
         id="g4258"
         transform="matrix(1,0,0,-1,0,80)"><path
           d="m 39.27,42.02 c 0,0.625 -0.508,1.136 -1.137,1.136 -0.629,0 -1.137,-0.511 -1.137,-1.136 0,-0.629 0.508,-1.137 1.137,-1.137 0.629,0 1.137,0.508 1.137,1.137 z"
           style="fill:#000000;fill-opacity:1;fill-rule:evenodd;stroke:#000000;stroke-width:0.31999999;stroke-linecap:round;stroke-linejoin:round;stroke-miterlimit:4;stroke-dasharray:none;stroke-opacity:1"
           id="path4260"
           inkscape:connector-curvature="0" /></g><text
         transform="scale(1,-1)"
         style="font-variant:normal;font-weight:normal;font-size:3.90655804px;font-family:'Times New Roman';-inkscape-font-specification:TimesNewRomanPSMT;writing-mode:lr-tb;fill:#000000;fill-opacity:1;fill-rule:nonzero;stroke:none"
         id="text4262"
         x="0.73243219"
         y="-62.9547"><tspan
           x="0.73243219"
           y="-62.9547"
           id="tspan4264">24.Wh</tspan></text>
<text
         transform="matrix(1,0,0,-1,2.877564,62.17339)"
         style="font-variant:normal;font-weight:normal;font-size:2.53926301px;font-family:'Times New Roman';-inkscape-font-specification:TimesNewRomanPSMT;writing-mode:lr-tb;fill:#000000;fill-opacity:1;fill-rule:nonzero;stroke:none"
         id="text4266"><tspan
           x="0"
           y="0"
           id="tspan4268" /></text>
<text
         transform="matrix(1,0,0,-1,3.581813,62.954701)"
         style="font-variant:normal;font-weight:normal;font-size:3.90655804px;font-family:'Times New Roman';-inkscape-font-specification:TimesNewRomanPSMT;writing-mode:lr-tb;fill:#000000;fill-opacity:1;fill-rule:nonzero;stroke:none"
         id="text4270" />
<text
         transform="scale(1,-1)"
         style="font-variant:normal;font-weight:normal;font-size:3.90655804px;font-family:'Times New Roman';-inkscape-font-specification:TimesNewRomanPSMT;writing-mode:lr-tb;fill:#000000;fill-opacity:1;fill-rule:nonzero;stroke:none"
         id="text4280"
         x="-16.965818"
         y="-67.825615"><tspan
           x="3.1062362"
           y="-36.713017"
           id="tspan4284">Opti</tspan></text>
<text
         transform="scale(1,-1)"
         style="font-variant:normal;font-weight:normal;font-size:2.53926301px;font-family:'Times New Roman';-inkscape-font-specification:TimesNewRomanPSMT;writing-mode:lr-tb;fill:#000000;fill-opacity:1;fill-rule:nonzero;stroke:none"
         id="text4286"
         x="19.444508"
         y="-6.4504337"><tspan
           x="19.444508"
           y="-6.4504337"
           id="tspan4288">Loisir opti</tspan></text>
<text
         transform="scale(1,-1)"
         style="font-variant:normal;font-weight:normal;font-size:2.53926301px;font-family:'Times New Roman';-inkscape-font-specification:TimesNewRomanPSMT;writing-mode:lr-tb;fill:#000000;fill-opacity:1;fill-rule:nonzero;stroke:none"
         id="text4294"
         x="45.135841"
         y="-6.4504337"><tspan
           x="45.135841"
           y="-6.4504337"
           id="tspan4296">travail opti</tspan></text>
<text
         transform="scale(1,-1)"
         style="font-variant:normal;font-weight:normal;font-size:2.53926301px;font-family:'Times New Roman';-inkscape-font-specification:TimesNewRomanPSMT;writing-mode:lr-tb;fill:#000000;fill-opacity:1;fill-rule:nonzero;stroke:none"
         id="text4302"
         x="62.502769"
         y="-6.2024589"><tspan
           x="62.502769"
           y="-6.2024589"
           id="tspan4304">24</tspan></text>
<g
         id="g4306"
         transform="matrix(1,0,0,-1,0,80)"><path
           d="m 12.012,42.02 26.156,0.019 -0.172,25.934"
           style="fill:none;stroke:#000000;stroke-width:0.40000001;stroke-linecap:butt;stroke-linejoin:miter;stroke-miterlimit:4;stroke-dasharray:0.4, 0.8;stroke-dashoffset:0;stroke-opacity:1"
           id="path4308"
           inkscape:connector-curvature="0" /></g><path
         d="m 24.652,9.559 c 0.145,0.195 0.286,0.328 0.414,0.394 0.172,0.086 0.375,0.133 0.614,0.133 l 11.203,0 c 0.219,0 0.398,0.062 0.539,0.187 0.144,0.129 0.223,0.29 0.238,0.477 0.012,0.125 0.035,0.203 0.07,0.238 0.047,0.051 0.11,0.075 0.18,0.075 0.067,0 0.125,-0.024 0.172,-0.071 0.047,-0.051 0.07,-0.121 0.07,-0.219 0,-0.308 -0.097,-0.562 -0.297,-0.765 -0.261,-0.274 -0.585,-0.41 -0.972,-0.41 l -11.203,0 C 25.469,9.598 25.289,9.535 25.145,9.406 25,9.277 24.922,9.113 24.906,8.914 24.895,8.813 24.867,8.738 24.824,8.695 24.781,8.648 24.727,8.625 24.652,8.625 c -0.078,0 -0.136,0.023 -0.179,0.07 -0.043,0.043 -0.071,0.118 -0.082,0.219 -0.016,0.203 -0.098,0.367 -0.243,0.492 -0.144,0.129 -0.32,0.192 -0.531,0.192 l -10.441,0 c -0.363,0 -0.664,0.117 -0.903,0.347 -0.246,0.231 -0.367,0.508 -0.367,0.828 0,0.098 0.024,0.168 0.071,0.219 0.046,0.047 0.105,0.071 0.179,0.071 0.071,0 0.129,-0.024 0.176,-0.071 0.031,-0.039 0.055,-0.117 0.066,-0.242 0.02,-0.191 0.102,-0.352 0.25,-0.477 0.145,-0.125 0.321,-0.187 0.532,-0.187 l 10.437,0 c 0.242,0 0.438,-0.039 0.59,-0.117 0.148,-0.078 0.297,-0.215 0.445,-0.41 z"
         style="fill:#000000;fill-opacity:1;fill-rule:nonzero;stroke:none"
         id="path4310"
         inkscape:connector-curvature="0" /><path
         d="m 50.957,9.551 c 0.148,0.195 0.285,0.328 0.418,0.394 0.168,0.086 0.375,0.133 0.613,0.133 l 10.703,0 c 0.215,0 0.395,0.063 0.536,0.192 0.144,0.125 0.222,0.285 0.238,0.472 0.012,0.125 0.035,0.203 0.07,0.238 0.051,0.051 0.11,0.075 0.18,0.075 0.07,0 0.129,-0.024 0.172,-0.071 0.047,-0.05 0.07,-0.121 0.07,-0.218 0,-0.309 -0.098,-0.563 -0.293,-0.766 -0.266,-0.273 -0.59,-0.41 -0.973,-0.41 l -10.703,0 C 51.777,9.59 51.598,9.527 51.449,9.398 51.309,9.27 51.227,9.105 51.211,8.906 51.199,8.805 51.176,8.73 51.133,8.688 51.09,8.641 51.031,8.617 50.957,8.617 c -0.078,0 -0.137,0.024 -0.18,0.071 -0.043,0.042 -0.07,0.117 -0.078,0.218 -0.015,0.203 -0.097,0.367 -0.246,0.492 -0.14,0.129 -0.32,0.192 -0.531,0.192 l -10.942,0 c -0.363,0 -0.664,0.117 -0.902,0.348 -0.242,0.23 -0.363,0.507 -0.363,0.828 0,0.097 0.023,0.168 0.07,0.218 0.043,0.047 0.106,0.071 0.18,0.071 0.066,0 0.125,-0.024 0.172,-0.071 0.035,-0.039 0.058,-0.117 0.07,-0.242 0.02,-0.191 0.102,-0.351 0.246,-0.476 0.145,-0.125 0.32,-0.188 0.535,-0.188 l 10.934,0 c 0.242,0 0.441,-0.039 0.59,-0.117 0.152,-0.078 0.301,-0.215 0.445,-0.41 z"
         style="fill:#000000;fill-opacity:1;fill-rule:nonzero;stroke:none"
         id="path4312"
         inkscape:connector-curvature="0" /></g></g></svg>